<svg xmlns="http://www.w3.org/2000/svg" viewBox="0 0 912.62 912.31"><g id="b11e8da7-394b-4545-a413-ad16909e5942" data-name="Layer 2"><path d="M1051,81S822,31,698,124,576,360,581,406s6.5,145.5,140.5,284.5c0,0-157-181-64-384,58-128,194-146,226-147,0,0-149,45-202,154s-58,228,28,351c0,0-97-185,17-293,53-51,178-95.53,233.5-139.27S1042.5,150.5,1051,81Z" transform="translate(-538.95 -67.58)" style="fill:#fff"/><path d="M918.22,963.2s227.82,55.14,353.88-35.05,127.27-233.2,123.3-279.3-3.22-145.61-134.07-287.59c0,0,152.9,184.49,55.36,385.34-60.87,126.67-197.24,141.61-229.25,141.89,0,0,150-41.64,205.41-149.42s63.11-226.64-20.1-351.54c0,0,92.81,187.13-23.58,292.54-54.14,49.8-180.11,91.51-236.58,134S928.28,893.91,918.22,963.2Z" transform="translate(-538.95 -67.58)" style="fill:#fff"/><path d="M835,338s67,111,39,219S748,723,670,730s-133,16.26-131,73.13S594,950,717,949,923,849,945,757s19-179,0-268l209,228s-64-105-43-206,107-177,213-187,128.12-71.45,127.56-105.72S1438,96,1318,94c-77,0-166,35-207,85-33,41-68,91-84,189s2,188,2,188Z" transform="translate(-538.95 -67.58)" style="fill:#fff"/></g></svg>